<svg width="80" height="80" viewBox="0 0 80 80" fill="none" xmlns="http://www.w3.org/2000/svg">
<rect x="10" y="11" width="60" height="60" rx="15" fill="#12CDD9"/>
<mask id="mask0_74_630" style="mask-type:alpha" maskUnits="userSpaceOnUse" x="0" y="0" width="80" height="80">
<rect x="1.5" y="1.5" width="77" height="77" rx="18.5" stroke="#BA9778" stroke-width="3"/>
</mask>
<g mask="url(#mask0_74_630)">
<rect x="1.5" y="1.5" width="77" height="77" rx="18.5" stroke="#12CDD9" stroke-width="3"/>
<path d="M-7 15C-7 5.05888 1.05888 -3 11 -3H42V57H-7V15Z" fill="#12CDD9" stroke="#1F1D2B" stroke-width="4"/>
<path d="M-19 76C-19 66.0589 -10.9411 58 -1 58H83V87H-19V76Z" fill="#12CDD9" stroke="#1F1D2B" stroke-width="4"/>
</g>
<path d="M38.1703 33C38.3197 32.9995 38.4673 33.0325 38.6023 33.0965C38.7373 33.1605 38.8562 33.254 38.9503 33.37L43.7803 39.37C43.9274 39.5489 44.0078 39.7734 44.0078 40.005C44.0078 40.2366 43.9274 40.4611 43.7803 40.64L38.7803 46.64C38.6106 46.8442 38.3667 46.9726 38.1022 46.997C37.8378 47.0214 37.5745 46.9397 37.3703 46.77C37.1661 46.6003 37.0377 46.3563 37.0133 46.0919C36.9889 45.8275 37.0706 45.5642 37.2403 45.36L41.7103 40L37.3903 34.64C37.268 34.4932 37.1904 34.3145 37.1665 34.1249C37.1426 33.9354 37.1735 33.743 37.2556 33.5704C37.3376 33.3979 37.4674 33.2525 37.6295 33.1514C37.7916 33.0503 37.9793 32.9978 38.1703 33Z" fill="#1F1D2B"/>
</svg>
